{"accessors":[{"bufferView":0,"componentType":5126,"count":54,"max":[1.0,0.12740052,1.0],"min":[-1.0,-1.0,-1.0],"normalized":false,"type":"VEC3"},{"bufferView":1,"componentType":5126,"count":54,"max":[1.0,1.0,7.367134e-05,1.0],"min":[-1.0,-3.0456227e-05,-0.9996277,1.0],"normalized":false,"type":"VEC4"},{"bufferView":2,"componentType":5126,"count":54,"max":[1.0,1.0,1.0],"min":[-1.0,-1.0,-1.0],"normalized":false,"type":"VEC3"},{"bufferView":3,"componentType":5126,"count":54,"max":[0.8749981,1.0],"min":[0.12498665,0.0],"normalized":false,"type":"VEC2"},{"bufferView":4,"componentType":5121,"count":96,"max":[53],"min":[0],"normalized":false,"type":"SCALAR"}],"asset":{"copyright":"The Creators of 'The Choicer Voicer'","generator":"GDRE Tools vv2.7.0","version":"2.0"},"bufferViews":[{"buffer":0,"byteLength":648,"byteStride":12,"target":34962},{"buffer":0,"byteLength":864,"byteOffset":648,"byteStride":16,"target":34962},{"buffer":0,"byteLength":648,"byteOffset":1512,"byteStride":12,"target":34962},{"buffer":0,"byteLength":432,"byteOffset":2160,"byteStride":8,"target":34962},{"buffer":0,"byteLength":96,"byteOffset":2592,"target":34963}],"buffers":[{"byteLength":2688,"uri":"tempChair0.bin"}],"extensionsUsed":["GODOT_single_root"],"materials":[{"doubleSided":true,"name":"Material.007","pbrMetallicRoughness":{"baseColorFactor":[0.8,0.0,0.02046825,1.0],"metallicFactor":0.0,"roughnessFactor":0.5}}],"meshes":[{"name":"Cube_001","primitives":[{"attributes":{"NORMAL":2,"POSITION":0,"TANGENT":1,"TEXCOORD_0":3},"indices":4,"material":0,"mode":4}]}],"nodes":[{"children":[1],"name":"tempChair"},{"mesh":0,"name":"Cube","scale":[0.4,1.0,0.375],"translation":[0.0,1.0,0.0]}],"scene":0,"scenes":[{"name":"tempChair","nodes":[0]}]}